<svg xmlns="http://www.w3.org/2000/svg" viewBox="0 0 728.43 271.49"><defs><style>.cls-1{fill:#200c2c;}</style></defs><title>Asset 12</title><g id="Layer_2" data-name="Layer 2"><g id="Layer_1-2" data-name="Layer 1"><path class="cls-1" d="M.29,48.86a11,11,0,0,1,1.34-3.93c1.43-2.43,3.91-4,6.33-5.49C48.2,15,95.2-.66,142.6,0c71.36,1,115,44.26,160.36,93.71,6.94,7.56,13.92,15.1,21.16,22.39,40.25,40.53,89.71,73.22,145.11,87.13,39.81,10,81.14,10.08,121.58,16.06,38.86,5.74,77.31,20.55,112.76,37.29q6.52,3.07,13,6.34c3.12,1.57,10.7,4.42,11.89,7.79-3.5,1.49-9.75.34-13.59.33l-12.91,0H670.14l-61.14,0-122.29,0q-115.56,0-231.14,0H0q0-108.53,0-217A32.14,32.14,0,0,1,.29,48.86Z"/></g></g></svg>