<svg xmlns="http://www.w3.org/2000/svg" viewBox="0 0 224.82 35.82"><defs><style>.cls-1{fill:#e8770b;}.cls-2{fill:#fff;}</style></defs><title>logo</title><g id="Layer_2" data-name="Layer 2"><g id="Layer_1-2" data-name="Layer 1"><path class="cls-1" d="M24.85,4.65v5.63a13.18,13.18,0,0,0-8.53-3.45,10.88,10.88,0,0,0-8.18,3.49,11.76,11.76,0,0,0-3.35,8.49,11.48,11.48,0,0,0,3.35,8.36,11,11,0,0,0,8.2,3.41,10,10,0,0,0,4.26-.82,12,12,0,0,0,2-1.1A24.76,24.76,0,0,0,24.85,27v5.73A17.15,17.15,0,0,1,16.28,35,15.85,15.85,0,0,1,4.75,30.31,15.61,15.61,0,0,1,0,18.85,16.19,16.19,0,0,1,4,8.12,15.82,15.82,0,0,1,16.65,2.35,16.07,16.07,0,0,1,24.85,4.65Z"/><path class="cls-1" d="M29,24.38a9.87,9.87,0,0,1,3.08-7.33,10.32,10.32,0,0,1,7.51-3,10.38,10.38,0,0,1,7.54,3,10.13,10.13,0,0,1,3.06,7.47A10.05,10.05,0,0,1,47.14,32a10.51,10.51,0,0,1-7.61,3A10.09,10.09,0,0,1,32.05,32,10.29,10.29,0,0,1,29,24.38Zm4.69.08a6.7,6.7,0,0,0,1.59,4.71,5.61,5.61,0,0,0,4.31,1.76,5.58,5.58,0,0,0,4.3-1.74,6.54,6.54,0,0,0,1.61-4.63,6.56,6.56,0,0,0-1.61-4.63,5.59,5.59,0,0,0-4.3-1.75,5.56,5.56,0,0,0-4.27,1.75A6.38,6.38,0,0,0,33.72,24.46Z"/><path class="cls-1" d="M56.71,14.59l5.14,11.15L67,14.59h5.16L61.81,35.82,51.57,14.59Z"/><path class="cls-1" d="M74.54,6.32a2.84,2.84,0,0,1,.88-2.08,2.86,2.86,0,0,1,2.1-.87,2.91,2.91,0,0,1,2.12.87,2.84,2.84,0,0,1,.88,2.1,2.94,2.94,0,0,1-.88,2.13,2.83,2.83,0,0,1-2.1.87,2.89,2.89,0,0,1-2.12-.87A2.91,2.91,0,0,1,74.54,6.32Zm5.28,8.27V34.45H75.23V14.59Z"/><path class="cls-1" d="M100.28,0h4.61V34.45h-4.61V32.37A8.56,8.56,0,0,1,94.14,35a8.76,8.76,0,0,1-6.77-3,11.1,11.1,0,0,1-2.67-7.59A10.72,10.72,0,0,1,87.37,17a8.57,8.57,0,0,1,12.91-.14ZM89.39,24.46a6.93,6.93,0,0,0,1.53,4.65,5,5,0,0,0,4,1.82A5.27,5.27,0,0,0,99,29.17a6.78,6.78,0,0,0,1.57-4.61A6.78,6.78,0,0,0,99,20a5.21,5.21,0,0,0-4.08-1.77A5.06,5.06,0,0,0,91,20,6.61,6.61,0,0,0,89.39,24.46Z"/><path class="cls-2" d="M134.84,4.65v5.63a13.18,13.18,0,0,0-8.53-3.45,10.89,10.89,0,0,0-8.18,3.49,11.76,11.76,0,0,0-3.34,8.49,11.47,11.47,0,0,0,3.34,8.36,11.07,11.07,0,0,0,8.2,3.41,10,10,0,0,0,4.27-.82,12.41,12.41,0,0,0,2-1.1A24.71,24.71,0,0,0,134.84,27v5.73A17.15,17.15,0,0,1,126.27,35a15.81,15.81,0,0,1-11.52-4.72A15.62,15.62,0,0,1,110,18.85a16.19,16.19,0,0,1,4-10.73,15.85,15.85,0,0,1,12.67-5.77A16,16,0,0,1,134.84,4.65Z"/><path class="cls-2" d="M140,0h4.59V16.24A7.9,7.9,0,0,1,150,14a7,7,0,0,1,5.38,2.19q1.71,1.89,1.71,6.06V34.45h-4.59V22.7a5.6,5.6,0,0,0-.84-3.45,3.25,3.25,0,0,0-2.73-1.07,3.74,3.74,0,0,0-3.38,1.48q-1,1.52-1,5.19v9.6H140Z"/><path class="cls-2" d="M181,25.6H166.72a6.1,6.1,0,0,0,1.6,3.9,4.84,4.84,0,0,0,3.61,1.43,4.72,4.72,0,0,0,2.83-.82,11.45,11.45,0,0,0,2.51-3l3.88,2.16a15,15,0,0,1-1.9,2.62,10.19,10.19,0,0,1-2.14,1.8,8.67,8.67,0,0,1-2.47,1,11.92,11.92,0,0,1-2.88.33,9.38,9.38,0,0,1-7.14-2.86,10.74,10.74,0,0,1-2.69-7.63,11,11,0,0,1,2.61-7.63,9.94,9.94,0,0,1,13.91-.08Q181,19.61,181,24.52Zm-4.71-3.75a4.39,4.39,0,0,0-4.63-3.67,4.74,4.74,0,0,0-1.57.25,4.5,4.5,0,0,0-1.34.74,4.56,4.56,0,0,0-1,1.15,5.56,5.56,0,0,0-.65,1.53Z"/><path class="cls-2" d="M201.44,15.44v6.1a11.08,11.08,0,0,0-2.81-2.63,5.51,5.51,0,0,0-2.88-.73,5.66,5.66,0,0,0-4.3,1.81,6.39,6.39,0,0,0-1.72,4.55,6.54,6.54,0,0,0,1.66,4.59,5.55,5.55,0,0,0,4.26,1.8,5.83,5.83,0,0,0,2.92-.72,11.62,11.62,0,0,0,2.87-2.69v6.06A12.1,12.1,0,0,1,195.85,35a10.73,10.73,0,0,1-7.71-3A10,10,0,0,1,185,24.6a10.1,10.1,0,0,1,3.14-7.51A10.65,10.65,0,0,1,195.9,14,11.5,11.5,0,0,1,201.44,15.44Z"/><path class="cls-2" d="M211.56,0V21L218,14.59h6.16l-8.63,8.34,9.26,11.52h-6l-6.56-8.38-.74.73v7.65H207V0Z"/></g></g></svg>